<svg xmlns="http://www.w3.org/2000/svg" width="1440" height="900" viewBox="0 0 1440 900">
    <defs>
      <linearGradient id="glass" x1="0" y1="0" x2="0" y2="1"><stop offset="0" stop-color="#1e293b"/><stop offset="1" stop-color="#0f172a"/></linearGradient>
      <linearGradient id="toolbar" x1="0" y1="0" x2="0" y2="1"><stop offset="0" stop-color="#172033"/><stop offset="1" stop-color="#0d1324"/></linearGradient>
      <filter id="shadow" x="-20%" y="-20%" width="140%" height="140%"><feDropShadow dx="0" dy="8" stdDeviation="10" flood-color="#000" flood-opacity="0.35"/></filter>
      <filter id="soft" x="-50%" y="-50%" width="200%" height="200%"><feGaussianBlur stdDeviation="3"/></filter>
      <style>
        text { font-family: Inter, Segoe UI, DejaVu Sans, Arial, sans-serif; fill: #e5e7eb; }
        .muted { fill: #94a3b8; }
        .small { font-size: 13px; }
        .xs { font-size: 11px; }
        .title { font-size: 24px; font-weight: 700; }
        .label { font-size: 12px; font-weight: 650; letter-spacing: .04em; text-transform: uppercase; fill:#94a3b8; }
        .btn { fill:#162033; stroke:#334155; stroke-width:1; rx:9; }
        .card { fill:#111827; stroke:#2b3a52; stroke-width:1; rx:12; filter:url(#shadow); }
      </style>
    </defs>
    <rect width="100%" height="100%" fill="#0b1020"/>
    <rect x="0" y="0" width="1440" height="64" rx="0" fill="url(#toolbar)" /><text x="24" y="40" font-size="22" fill="#e5e7eb" font-weight="800">Bridge Timeline Debugger · Filmstrip Focus</text><rect x="330" y="18" width="92" height="30" rx="15.0" fill="#162033" stroke="#334155" stroke-width="1" /><text x="376.0" y="38.0" font-size="12" fill="#e5e7eb" font-weight="600" text-anchor="middle">Connect</text><rect x="432" y="18" width="132" height="30" rx="15.0" fill="#173326" stroke="#2f8f5b" stroke-width="1" /><text x="498.0" y="38.0" font-size="12" fill="#e5e7eb" font-weight="600" text-anchor="middle">Start Recording</text><rect x="574" y="18" width="132" height="30" rx="15.0" fill="#3a1821" stroke="#8b2635" stroke-width="1" /><text x="640.0" y="38.0" font-size="12" fill="#e5e7eb" font-weight="600" text-anchor="middle">Stop Recording</text><rect x="716" y="18" width="92" height="30" rx="15.0" fill="#162033" stroke="#334155" stroke-width="1" /><text x="762.0" y="38.0" font-size="12" fill="#e5e7eb" font-weight="600" text-anchor="middle">Save</text><rect x="818" y="18" width="92" height="30" rx="15.0" fill="#162033" stroke="#334155" stroke-width="1" /><text x="864.0" y="38.0" font-size="12" fill="#e5e7eb" font-weight="600" text-anchor="middle">Load</text><rect x="1160" y="18" width="248" height="30" rx="16" fill="#151c30" stroke="#334155" stroke-width="1" /><circle cx="1180" cy="33" r="6" fill="#22c55e"/><text x="1194" y="38" font-size="12" fill="#cbd5e1" font-weight="600">token/auth: valid · ws connected</text><rect x="40" y="86" width="1360" height="764" rx="18" fill="#0f172a" stroke="#273549" stroke-width="1" filter="url(#shadow)"/><text x="72" y="128" font-size="28" fill="#e5e7eb" font-weight="800">Timeline / Filmstrip</text><rect x="72" y="152" width="150" height="32" rx="16.0" fill="#162033" stroke="#334155" stroke-width="1" /><text x="147.0" y="173.0" font-size="13" fill="#e5e7eb" font-weight="600" text-anchor="middle">Zoom 84%</text><rect x="234" y="152" width="220" height="32" rx="16.0" fill="#162033" stroke="#334155" stroke-width="1" /><text x="344.0" y="173.0" font-size="13" fill="#e5e7eb" font-weight="600" text-anchor="middle">Search: max_tokens</text><rect x="466" y="152" width="110" height="32" rx="16.0" fill="#162033" stroke="#334155" stroke-width="1" /><text x="521.0" y="173.0" font-size="13" fill="#e5e7eb" font-weight="600" text-anchor="middle">HTTP</text><rect x="588" y="152" width="96" height="32" rx="16.0" fill="#162033" stroke="#334155" stroke-width="1" /><text x="636.0" y="173.0" font-size="13" fill="#e5e7eb" font-weight="600" text-anchor="middle">LLM</text><rect x="696" y="152" width="96" height="32" rx="16.0" fill="#162033" stroke="#334155" stroke-width="1" /><text x="744.0" y="173.0" font-size="13" fill="#e5e7eb" font-weight="600" text-anchor="middle">Tool</text><rect x="804" y="152" width="126" height="32" rx="16.0" fill="#162033" stroke="#334155" stroke-width="1" /><text x="867.0" y="173.0" font-size="13" fill="#e5e7eb" font-weight="600" text-anchor="middle">Errors only</text><rect x="942" y="152" width="140" height="32" rx="16.0" fill="#162033" stroke="#334155" stroke-width="1" /><text x="1012.0" y="173.0" font-size="13" fill="#e5e7eb" font-weight="600" text-anchor="middle">Collapse groups</text><rect x="1094" y="152" width="170" height="32" rx="16.0" fill="#162033" stroke="#334155" stroke-width="1" /><text x="1179.0" y="173.0" font-size="13" fill="#e5e7eb" font-weight="600" text-anchor="middle">Jump to selected run</text><text x="81" y="251" font-size="13" fill="#94a3b8" font-weight="700">HTTP</text><line x1="165" y1="245" x2="1320" y2="245" stroke="#263247" stroke-width="3" stroke-linecap="round"/><line x1="165" y1="245" x2="1320" y2="245" stroke="#38bdf8" stroke-width="1" opacity=".35" stroke-dasharray="6 12"/><rect x="165" y="215" width="32" height="60" fill="#0b1222" stroke="#1f2a44" opacity=".35"/><rect x="245" y="215" width="32" height="60" fill="#0b1222" stroke="#1f2a44" opacity=".35"/><rect x="325" y="215" width="32" height="60" fill="#0b1222" stroke="#1f2a44" opacity=".35"/><rect x="405" y="215" width="32" height="60" fill="#0b1222" stroke="#1f2a44" opacity=".35"/><rect x="485" y="215" width="32" height="60" fill="#0b1222" stroke="#1f2a44" opacity=".35"/><rect x="565" y="215" width="32" height="60" fill="#0b1222" stroke="#1f2a44" opacity=".35"/><rect x="645" y="215" width="32" height="60" fill="#0b1222" stroke="#1f2a44" opacity=".35"/><rect x="725" y="215" width="32" height="60" fill="#0b1222" stroke="#1f2a44" opacity=".35"/><rect x="805" y="215" width="32" height="60" fill="#0b1222" stroke="#1f2a44" opacity=".35"/><rect x="885" y="215" width="32" height="60" fill="#0b1222" stroke="#1f2a44" opacity=".35"/><rect x="965" y="215" width="32" height="60" fill="#0b1222" stroke="#1f2a44" opacity=".35"/><rect x="1045" y="215" width="32" height="60" fill="#0b1222" stroke="#1f2a44" opacity=".35"/><rect x="1125" y="215" width="32" height="60" fill="#0b1222" stroke="#1f2a44" opacity=".35"/><rect x="1205" y="215" width="32" height="60" fill="#0b1222" stroke="#1f2a44" opacity=".35"/><rect x="1285" y="215" width="32" height="60" fill="#0b1222" stroke="#1f2a44" opacity=".35"/><text x="81" y="341" font-size="13" fill="#94a3b8" font-weight="700">LLM</text><line x1="165" y1="335" x2="1320" y2="335" stroke="#263247" stroke-width="3" stroke-linecap="round"/><line x1="165" y1="335" x2="1320" y2="335" stroke="#818cf8" stroke-width="1" opacity=".35" stroke-dasharray="6 12"/><rect x="165" y="305" width="32" height="60" fill="#0b1222" stroke="#1f2a44" opacity=".35"/><rect x="245" y="305" width="32" height="60" fill="#0b1222" stroke="#1f2a44" opacity=".35"/><rect x="325" y="305" width="32" height="60" fill="#0b1222" stroke="#1f2a44" opacity=".35"/><rect x="405" y="305" width="32" height="60" fill="#0b1222" stroke="#1f2a44" opacity=".35"/><rect x="485" y="305" width="32" height="60" fill="#0b1222" stroke="#1f2a44" opacity=".35"/><rect x="565" y="305" width="32" height="60" fill="#0b1222" stroke="#1f2a44" opacity=".35"/><rect x="645" y="305" width="32" height="60" fill="#0b1222" stroke="#1f2a44" opacity=".35"/><rect x="725" y="305" width="32" height="60" fill="#0b1222" stroke="#1f2a44" opacity=".35"/><rect x="805" y="305" width="32" height="60" fill="#0b1222" stroke="#1f2a44" opacity=".35"/><rect x="885" y="305" width="32" height="60" fill="#0b1222" stroke="#1f2a44" opacity=".35"/><rect x="965" y="305" width="32" height="60" fill="#0b1222" stroke="#1f2a44" opacity=".35"/><rect x="1045" y="305" width="32" height="60" fill="#0b1222" stroke="#1f2a44" opacity=".35"/><rect x="1125" y="305" width="32" height="60" fill="#0b1222" stroke="#1f2a44" opacity=".35"/><rect x="1205" y="305" width="32" height="60" fill="#0b1222" stroke="#1f2a44" opacity=".35"/><rect x="1285" y="305" width="32" height="60" fill="#0b1222" stroke="#1f2a44" opacity=".35"/><text x="81" y="431" font-size="13" fill="#94a3b8" font-weight="700">Tool</text><line x1="165" y1="425" x2="1320" y2="425" stroke="#263247" stroke-width="3" stroke-linecap="round"/><line x1="165" y1="425" x2="1320" y2="425" stroke="#fb923c" stroke-width="1" opacity=".35" stroke-dasharray="6 12"/><rect x="165" y="395" width="32" height="60" fill="#0b1222" stroke="#1f2a44" opacity=".35"/><rect x="245" y="395" width="32" height="60" fill="#0b1222" stroke="#1f2a44" opacity=".35"/><rect x="325" y="395" width="32" height="60" fill="#0b1222" stroke="#1f2a44" opacity=".35"/><rect x="405" y="395" width="32" height="60" fill="#0b1222" stroke="#1f2a44" opacity=".35"/><rect x="485" y="395" width="32" height="60" fill="#0b1222" stroke="#1f2a44" opacity=".35"/><rect x="565" y="395" width="32" height="60" fill="#0b1222" stroke="#1f2a44" opacity=".35"/><rect x="645" y="395" width="32" height="60" fill="#0b1222" stroke="#1f2a44" opacity=".35"/><rect x="725" y="395" width="32" height="60" fill="#0b1222" stroke="#1f2a44" opacity=".35"/><rect x="805" y="395" width="32" height="60" fill="#0b1222" stroke="#1f2a44" opacity=".35"/><rect x="885" y="395" width="32" height="60" fill="#0b1222" stroke="#1f2a44" opacity=".35"/><rect x="965" y="395" width="32" height="60" fill="#0b1222" stroke="#1f2a44" opacity=".35"/><rect x="1045" y="395" width="32" height="60" fill="#0b1222" stroke="#1f2a44" opacity=".35"/><rect x="1125" y="395" width="32" height="60" fill="#0b1222" stroke="#1f2a44" opacity=".35"/><rect x="1205" y="395" width="32" height="60" fill="#0b1222" stroke="#1f2a44" opacity=".35"/><rect x="1285" y="395" width="32" height="60" fill="#0b1222" stroke="#1f2a44" opacity=".35"/><text x="81" y="521" font-size="13" fill="#94a3b8" font-weight="700">File</text><line x1="165" y1="515" x2="1320" y2="515" stroke="#263247" stroke-width="3" stroke-linecap="round"/><line x1="165" y1="515" x2="1320" y2="515" stroke="#34d399" stroke-width="1" opacity=".35" stroke-dasharray="6 12"/><rect x="165" y="485" width="32" height="60" fill="#0b1222" stroke="#1f2a44" opacity=".35"/><rect x="245" y="485" width="32" height="60" fill="#0b1222" stroke="#1f2a44" opacity=".35"/><rect x="325" y="485" width="32" height="60" fill="#0b1222" stroke="#1f2a44" opacity=".35"/><rect x="405" y="485" width="32" height="60" fill="#0b1222" stroke="#1f2a44" opacity=".35"/><rect x="485" y="485" width="32" height="60" fill="#0b1222" stroke="#1f2a44" opacity=".35"/><rect x="565" y="485" width="32" height="60" fill="#0b1222" stroke="#1f2a44" opacity=".35"/><rect x="645" y="485" width="32" height="60" fill="#0b1222" stroke="#1f2a44" opacity=".35"/><rect x="725" y="485" width="32" height="60" fill="#0b1222" stroke="#1f2a44" opacity=".35"/><rect x="805" y="485" width="32" height="60" fill="#0b1222" stroke="#1f2a44" opacity=".35"/><rect x="885" y="485" width="32" height="60" fill="#0b1222" stroke="#1f2a44" opacity=".35"/><rect x="965" y="485" width="32" height="60" fill="#0b1222" stroke="#1f2a44" opacity=".35"/><rect x="1045" y="485" width="32" height="60" fill="#0b1222" stroke="#1f2a44" opacity=".35"/><rect x="1125" y="485" width="32" height="60" fill="#0b1222" stroke="#1f2a44" opacity=".35"/><rect x="1205" y="485" width="32" height="60" fill="#0b1222" stroke="#1f2a44" opacity=".35"/><rect x="1285" y="485" width="32" height="60" fill="#0b1222" stroke="#1f2a44" opacity=".35"/><text x="81" y="611" font-size="13" fill="#94a3b8" font-weight="700">Parser</text><line x1="165" y1="605" x2="1320" y2="605" stroke="#263247" stroke-width="3" stroke-linecap="round"/><line x1="165" y1="605" x2="1320" y2="605" stroke="#a78bfa" stroke-width="1" opacity=".35" stroke-dasharray="6 12"/><rect x="165" y="575" width="32" height="60" fill="#0b1222" stroke="#1f2a44" opacity=".35"/><rect x="245" y="575" width="32" height="60" fill="#0b1222" stroke="#1f2a44" opacity=".35"/><rect x="325" y="575" width="32" height="60" fill="#0b1222" stroke="#1f2a44" opacity=".35"/><rect x="405" y="575" width="32" height="60" fill="#0b1222" stroke="#1f2a44" opacity=".35"/><rect x="485" y="575" width="32" height="60" fill="#0b1222" stroke="#1f2a44" opacity=".35"/><rect x="565" y="575" width="32" height="60" fill="#0b1222" stroke="#1f2a44" opacity=".35"/><rect x="645" y="575" width="32" height="60" fill="#0b1222" stroke="#1f2a44" opacity=".35"/><rect x="725" y="575" width="32" height="60" fill="#0b1222" stroke="#1f2a44" opacity=".35"/><rect x="805" y="575" width="32" height="60" fill="#0b1222" stroke="#1f2a44" opacity=".35"/><rect x="885" y="575" width="32" height="60" fill="#0b1222" stroke="#1f2a44" opacity=".35"/><rect x="965" y="575" width="32" height="60" fill="#0b1222" stroke="#1f2a44" opacity=".35"/><rect x="1045" y="575" width="32" height="60" fill="#0b1222" stroke="#1f2a44" opacity=".35"/><rect x="1125" y="575" width="32" height="60" fill="#0b1222" stroke="#1f2a44" opacity=".35"/><rect x="1205" y="575" width="32" height="60" fill="#0b1222" stroke="#1f2a44" opacity=".35"/><rect x="1285" y="575" width="32" height="60" fill="#0b1222" stroke="#1f2a44" opacity=".35"/><text x="81" y="701" font-size="13" fill="#94a3b8" font-weight="700">Error</text><line x1="165" y1="695" x2="1320" y2="695" stroke="#263247" stroke-width="3" stroke-linecap="round"/><line x1="165" y1="695" x2="1320" y2="695" stroke="#f87171" stroke-width="1" opacity=".35" stroke-dasharray="6 12"/><rect x="165" y="665" width="32" height="60" fill="#0b1222" stroke="#1f2a44" opacity=".35"/><rect x="245" y="665" width="32" height="60" fill="#0b1222" stroke="#1f2a44" opacity=".35"/><rect x="325" y="665" width="32" height="60" fill="#0b1222" stroke="#1f2a44" opacity=".35"/><rect x="405" y="665" width="32" height="60" fill="#0b1222" stroke="#1f2a44" opacity=".35"/><rect x="485" y="665" width="32" height="60" fill="#0b1222" stroke="#1f2a44" opacity=".35"/><rect x="565" y="665" width="32" height="60" fill="#0b1222" stroke="#1f2a44" opacity=".35"/><rect x="645" y="665" width="32" height="60" fill="#0b1222" stroke="#1f2a44" opacity=".35"/><rect x="725" y="665" width="32" height="60" fill="#0b1222" stroke="#1f2a44" opacity=".35"/><rect x="805" y="665" width="32" height="60" fill="#0b1222" stroke="#1f2a44" opacity=".35"/><rect x="885" y="665" width="32" height="60" fill="#0b1222" stroke="#1f2a44" opacity=".35"/><rect x="965" y="665" width="32" height="60" fill="#0b1222" stroke="#1f2a44" opacity=".35"/><rect x="1045" y="665" width="32" height="60" fill="#0b1222" stroke="#1f2a44" opacity=".35"/><rect x="1125" y="665" width="32" height="60" fill="#0b1222" stroke="#1f2a44" opacity=".35"/><rect x="1205" y="665" width="32" height="60" fill="#0b1222" stroke="#1f2a44" opacity=".35"/><rect x="1285" y="665" width="32" height="60" fill="#0b1222" stroke="#1f2a44" opacity=".35"/><rect x="200" y="218" width="134" height="54" rx="10" fill="#111827" stroke="#38bdf8" stroke-width="1.5" /><circle cx="216" cy="236" r="5" fill="#38bdf8"/><text x="228" y="240" font-size="12" fill="#e5e7eb" font-weight="650">POST /api/send</text><text x="228" y="258" font-size="11" fill="#94a3b8">request</text><rect x="382" y="218" width="116" height="54" rx="10" fill="#111827" stroke="#38bdf8" stroke-width="1.5" /><circle cx="398" cy="236" r="5" fill="#38bdf8"/><text x="410" y="240" font-size="12" fill="#e5e7eb" font-weight="650">200 OK</text><text x="410" y="258" font-size="11" fill="#94a3b8">231ms</text><rect x="305" y="308" width="165" height="54" rx="10" fill="#111827" stroke="#818cf8" stroke-width="1.5" /><circle cx="321" cy="326" r="5" fill="#818cf8"/><text x="333" y="330" font-size="12" fill="#e5e7eb" font-weight="650">LLM request sent</text><text x="333" y="348" font-size="11" fill="#94a3b8">4201 tokens</text><rect x="530" y="308" width="190" height="54" rx="10" fill="#111827" stroke="#818cf8" stroke-width="1.5" /><circle cx="546" cy="326" r="5" fill="#818cf8"/><text x="558" y="330" font-size="12" fill="#e5e7eb" font-weight="650">LLM response received</text><text x="558" y="348" font-size="11" fill="#94a3b8">finish: length</text><rect x="760" y="398" width="170" height="54" rx="10" fill="#111827" stroke="#fb923c" stroke-width="1.5" /><circle cx="776" cy="416" r="5" fill="#fb923c"/><text x="788" y="420" font-size="12" fill="#e5e7eb" font-weight="650">write_file</text><text x="788" y="438" font-size="11" fill="#94a3b8">queued</text><rect x="975" y="398" width="160" height="54" rx="10" fill="#111827" stroke="#fb923c" stroke-width="1.5" /><circle cx="991" cy="416" r="5" fill="#fb923c"/><text x="1003" y="420" font-size="12" fill="#e5e7eb" font-weight="650">tool result</text><text x="1003" y="438" font-size="11" fill="#94a3b8">success</text><rect x="1180" y="488" width="132" height="54" rx="10" fill="#111827" stroke="#34d399" stroke-width="1.5" /><circle cx="1196" cy="506" r="5" fill="#34d399"/><text x="1208" y="510" font-size="12" fill="#e5e7eb" font-weight="650">file ref</text><text x="1208" y="528" font-size="11" fill="#94a3b8">trace.json</text><rect x="730" y="578" width="220" height="54" rx="10" fill="#111827" stroke="#a78bfa" stroke-width="1.5" /><circle cx="746" cy="596" r="5" fill="#a78bfa"/><text x="758" y="600" font-size="12" fill="#e5e7eb" font-weight="650">Warning: max_tokens reached</text><text x="758" y="618" font-size="11" fill="#94a3b8">truncated output</text><rect x="910" y="668" width="180" height="54" rx="10" fill="#111827" stroke="#f87171" stroke-width="1.5" /><circle cx="926" cy="686" r="5" fill="#f87171"/><text x="938" y="690" font-size="12" fill="#e5e7eb" font-weight="650">JSON parse failed</text><text x="938" y="708" font-size="11" fill="#94a3b8">recover: retry</text><path d="M1070,680 l10,18 h-20 z" fill="#f87171" opacity=".95"/><text x="1070" y="695" font-size="10" fill="#111827" font-weight="900" text-anchor="middle">!</text><rect x="530" y="381" width="190" height="8" rx="4" fill="#818cf8" opacity=".35"/><rect x="760" y="471" width="375" height="8" rx="4" fill="#fb923c" opacity=".35"/><rect x="730" y="651" width="360" height="8" rx="4" fill="#a78bfa" opacity=".35"/><path d="M334,245 C394,245 245,335 305,335" fill="none" stroke="#94a3b8" stroke-width="1.4" opacity=".55"/><path d="M470,335 C530,335 470,335 530,335" fill="none" stroke="#94a3b8" stroke-width="1.4" opacity=".55"/><path d="M720,335 C780,335 700,425 760,425" fill="none" stroke="#94a3b8" stroke-width="1.4" opacity=".55"/><path d="M1135,425 C1195,425 1120,515 1180,515" fill="none" stroke="#94a3b8" stroke-width="1.4" opacity=".55"/><path d="M720,335 C780,335 670,605 730,605" fill="none" stroke="#94a3b8" stroke-width="1.4" opacity=".55"/><path d="M720,335 C780,335 850,695 910,695" fill="none" stroke="#94a3b8" stroke-width="1.4" opacity=".55"/><text x="72" y="820" font-size="13" fill="#94a3b8">Dense mode: summaries visible by default; expand parent events to reveal child tool calls.</text></svg>